<mxfile host="Electron" modified="2024-02-11T16:28:59.186Z" agent="Mozilla/5.0 (Windows NT 10.0; Win64; x64) AppleWebKit/537.36 (KHTML, like Gecko) draw.io/23.0.2 Chrome/120.0.6099.109 Electron/28.1.0 Safari/537.36" etag="4yyGeAA9RVpisklI3KQF" version="23.0.2" type="device">
  <diagram name="Страница — 1" id="s3EfynE0Lmu_Qf4Vh0BE">
    <mxGraphModel dx="989" dy="582" grid="1" gridSize="10" guides="1" tooltips="1" connect="1" arrows="1" fold="1" page="1" pageScale="1" pageWidth="827" pageHeight="1169" math="0" shadow="0">
      <root>
        <mxCell id="0" />
        <mxCell id="1" parent="0" />
        <mxCell id="OE6n2S07r0290rKV6QJE-1" value="id = 1, n = 3&lt;br&gt;1, 2, 3" style="rounded=0;whiteSpace=wrap;html=1;" parent="1" vertex="1">
          <mxGeometry x="360" y="40" width="80" height="30" as="geometry" />
        </mxCell>
        <mxCell id="OE6n2S07r0290rKV6QJE-3" value="" style="endArrow=none;html=1;rounded=0;" parent="1" edge="1">
          <mxGeometry width="50" height="50" relative="1" as="geometry">
            <mxPoint x="320" y="50" as="sourcePoint" />
            <mxPoint x="360" y="49.8" as="targetPoint" />
          </mxGeometry>
        </mxCell>
        <mxCell id="OE6n2S07r0290rKV6QJE-4" value="" style="endArrow=classic;html=1;rounded=0;" parent="1" edge="1">
          <mxGeometry width="50" height="50" relative="1" as="geometry">
            <mxPoint x="320" y="50" as="sourcePoint" />
            <mxPoint x="320" y="80" as="targetPoint" />
          </mxGeometry>
        </mxCell>
        <mxCell id="OE6n2S07r0290rKV6QJE-5" value="id = 2, n = 2&lt;br&gt;1, 3, 2" style="rounded=0;whiteSpace=wrap;html=1;" parent="1" vertex="1">
          <mxGeometry x="270" y="80" width="80" height="30" as="geometry" />
        </mxCell>
        <mxCell id="OE6n2S07r0290rKV6QJE-6" value="" style="endArrow=none;html=1;rounded=0;entryX=-0.005;entryY=0.36;entryDx=0;entryDy=0;entryPerimeter=0;" parent="1" edge="1" target="OE6n2S07r0290rKV6QJE-5">
          <mxGeometry width="50" height="50" relative="1" as="geometry">
            <mxPoint x="240" y="90" as="sourcePoint" />
            <mxPoint x="280" y="89.8" as="targetPoint" />
          </mxGeometry>
        </mxCell>
        <mxCell id="OE6n2S07r0290rKV6QJE-7" value="" style="endArrow=classic;html=1;rounded=0;" parent="1" edge="1">
          <mxGeometry width="50" height="50" relative="1" as="geometry">
            <mxPoint x="240" y="90" as="sourcePoint" />
            <mxPoint x="240" y="120" as="targetPoint" />
          </mxGeometry>
        </mxCell>
        <mxCell id="OE6n2S07r0290rKV6QJE-8" value="id = 3, n = 1&lt;br&gt;1, 2, 3" style="rounded=0;whiteSpace=wrap;html=1;" parent="1" vertex="1">
          <mxGeometry x="200" y="120" width="70" height="30" as="geometry" />
        </mxCell>
        <mxCell id="OE6n2S07r0290rKV6QJE-9" value="" style="endArrow=none;html=1;rounded=0;" parent="1" edge="1">
          <mxGeometry width="50" height="50" relative="1" as="geometry">
            <mxPoint x="160" y="130" as="sourcePoint" />
            <mxPoint x="200" y="129.8" as="targetPoint" />
          </mxGeometry>
        </mxCell>
        <mxCell id="OE6n2S07r0290rKV6QJE-10" value="" style="endArrow=classic;html=1;rounded=0;" parent="1" edge="1">
          <mxGeometry width="50" height="50" relative="1" as="geometry">
            <mxPoint x="160" y="130" as="sourcePoint" />
            <mxPoint x="160" y="160" as="targetPoint" />
          </mxGeometry>
        </mxCell>
        <mxCell id="OE6n2S07r0290rKV6QJE-11" value="n = 0 (возврат)" style="rounded=0;whiteSpace=wrap;html=1;" parent="1" vertex="1">
          <mxGeometry x="110" y="160" width="90" height="20" as="geometry" />
        </mxCell>
        <mxCell id="OE6n2S07r0290rKV6QJE-12" value="" style="endArrow=none;html=1;rounded=0;" parent="1" edge="1">
          <mxGeometry width="50" height="50" relative="1" as="geometry">
            <mxPoint x="270" y="129.8" as="sourcePoint" />
            <mxPoint x="320" y="130" as="targetPoint" />
          </mxGeometry>
        </mxCell>
        <mxCell id="OE6n2S07r0290rKV6QJE-13" value="" style="endArrow=classic;html=1;rounded=0;" parent="1" edge="1">
          <mxGeometry width="50" height="50" relative="1" as="geometry">
            <mxPoint x="320" y="130" as="sourcePoint" />
            <mxPoint x="320" y="160" as="targetPoint" />
          </mxGeometry>
        </mxCell>
        <mxCell id="OE6n2S07r0290rKV6QJE-14" value="n = 0 (возврат)" style="rounded=0;whiteSpace=wrap;html=1;" parent="1" vertex="1">
          <mxGeometry x="272.5" y="160" width="85" height="20" as="geometry" />
        </mxCell>
        <mxCell id="OE6n2S07r0290rKV6QJE-15" value="" style="endArrow=none;html=1;rounded=0;" parent="1" edge="1">
          <mxGeometry width="50" height="50" relative="1" as="geometry">
            <mxPoint x="350" y="89.8" as="sourcePoint" />
            <mxPoint x="520" y="90" as="targetPoint" />
          </mxGeometry>
        </mxCell>
        <mxCell id="OE6n2S07r0290rKV6QJE-16" value="" style="endArrow=classic;html=1;rounded=0;" parent="1" edge="1">
          <mxGeometry width="50" height="50" relative="1" as="geometry">
            <mxPoint x="520" y="90" as="sourcePoint" />
            <mxPoint x="520" y="120" as="targetPoint" />
          </mxGeometry>
        </mxCell>
        <mxCell id="OE6n2S07r0290rKV6QJE-17" value="id = 4, n = 1&lt;br&gt;3, 1, 2" style="rounded=0;whiteSpace=wrap;html=1;" parent="1" vertex="1">
          <mxGeometry x="480" y="120" width="70" height="30" as="geometry" />
        </mxCell>
        <mxCell id="OE6n2S07r0290rKV6QJE-18" value="" style="endArrow=none;html=1;rounded=0;" parent="1" edge="1">
          <mxGeometry width="50" height="50" relative="1" as="geometry">
            <mxPoint x="440" y="130" as="sourcePoint" />
            <mxPoint x="480" y="129.8" as="targetPoint" />
          </mxGeometry>
        </mxCell>
        <mxCell id="OE6n2S07r0290rKV6QJE-19" value="" style="endArrow=classic;html=1;rounded=0;" parent="1" edge="1">
          <mxGeometry width="50" height="50" relative="1" as="geometry">
            <mxPoint x="440" y="130" as="sourcePoint" />
            <mxPoint x="440" y="160" as="targetPoint" />
          </mxGeometry>
        </mxCell>
        <mxCell id="OE6n2S07r0290rKV6QJE-20" value="n = 0 (возврат)" style="rounded=0;whiteSpace=wrap;html=1;" parent="1" vertex="1">
          <mxGeometry x="390" y="160" width="90" height="20" as="geometry" />
        </mxCell>
        <mxCell id="OE6n2S07r0290rKV6QJE-21" value="" style="endArrow=none;html=1;rounded=0;" parent="1" edge="1">
          <mxGeometry width="50" height="50" relative="1" as="geometry">
            <mxPoint x="550" y="130" as="sourcePoint" />
            <mxPoint x="590" y="129.8" as="targetPoint" />
          </mxGeometry>
        </mxCell>
        <mxCell id="OE6n2S07r0290rKV6QJE-22" value="" style="endArrow=classic;html=1;rounded=0;" parent="1" edge="1">
          <mxGeometry width="50" height="50" relative="1" as="geometry">
            <mxPoint x="590" y="130" as="sourcePoint" />
            <mxPoint x="590" y="160" as="targetPoint" />
          </mxGeometry>
        </mxCell>
        <mxCell id="OE6n2S07r0290rKV6QJE-23" value="n = 0 (возврат)" style="rounded=0;whiteSpace=wrap;html=1;" parent="1" vertex="1">
          <mxGeometry x="540" y="160" width="90" height="20" as="geometry" />
        </mxCell>
        <mxCell id="OE6n2S07r0290rKV6QJE-24" value="" style="endArrow=none;html=1;rounded=0;" parent="1" edge="1">
          <mxGeometry width="50" height="50" relative="1" as="geometry">
            <mxPoint x="440" y="49.8" as="sourcePoint" />
            <mxPoint x="830" y="50" as="targetPoint" />
          </mxGeometry>
        </mxCell>
        <mxCell id="OE6n2S07r0290rKV6QJE-25" value="" style="endArrow=classic;html=1;rounded=0;" parent="1" edge="1">
          <mxGeometry width="50" height="50" relative="1" as="geometry">
            <mxPoint x="830" y="50" as="sourcePoint" />
            <mxPoint x="830" y="90" as="targetPoint" />
          </mxGeometry>
        </mxCell>
        <mxCell id="OE6n2S07r0290rKV6QJE-26" value="id = 5, n = 2&lt;br&gt;2, 1, 3" style="rounded=0;whiteSpace=wrap;html=1;" parent="1" vertex="1">
          <mxGeometry x="790" y="90" width="70" height="30" as="geometry" />
        </mxCell>
        <mxCell id="OE6n2S07r0290rKV6QJE-27" value="" style="endArrow=none;html=1;rounded=0;" parent="1" edge="1">
          <mxGeometry width="50" height="50" relative="1" as="geometry">
            <mxPoint x="760" y="100" as="sourcePoint" />
            <mxPoint x="790" y="99.8" as="targetPoint" />
          </mxGeometry>
        </mxCell>
        <mxCell id="OE6n2S07r0290rKV6QJE-28" value="" style="endArrow=classic;html=1;rounded=0;entryX=0.595;entryY=0.03;entryDx=0;entryDy=0;entryPerimeter=0;" parent="1" edge="1" target="OE6n2S07r0290rKV6QJE-29">
          <mxGeometry width="50" height="50" relative="1" as="geometry">
            <mxPoint x="760" y="100" as="sourcePoint" />
            <mxPoint x="760" y="120" as="targetPoint" />
          </mxGeometry>
        </mxCell>
        <mxCell id="OE6n2S07r0290rKV6QJE-29" value="id = 6, n = 1&lt;br&gt;2, 3, 1" style="rounded=0;whiteSpace=wrap;html=1;" parent="1" vertex="1">
          <mxGeometry x="717" y="125" width="73" height="25" as="geometry" />
        </mxCell>
        <mxCell id="OE6n2S07r0290rKV6QJE-30" value="" style="endArrow=none;html=1;rounded=0;" parent="1" edge="1">
          <mxGeometry width="50" height="50" relative="1" as="geometry">
            <mxPoint x="687" y="130" as="sourcePoint" />
            <mxPoint x="717" y="130" as="targetPoint" />
          </mxGeometry>
        </mxCell>
        <mxCell id="OE6n2S07r0290rKV6QJE-31" value="" style="endArrow=classic;html=1;rounded=0;" parent="1" edge="1">
          <mxGeometry width="50" height="50" relative="1" as="geometry">
            <mxPoint x="686.94" y="130" as="sourcePoint" />
            <mxPoint x="686.94" y="160" as="targetPoint" />
          </mxGeometry>
        </mxCell>
        <mxCell id="OE6n2S07r0290rKV6QJE-32" value="n = 0 (возврат)" style="rounded=0;whiteSpace=wrap;html=1;" parent="1" vertex="1">
          <mxGeometry x="640" y="160" width="90" height="20" as="geometry" />
        </mxCell>
        <mxCell id="OE6n2S07r0290rKV6QJE-34" value="" style="endArrow=none;html=1;rounded=0;" parent="1" edge="1">
          <mxGeometry width="50" height="50" relative="1" as="geometry">
            <mxPoint x="790" y="130" as="sourcePoint" />
            <mxPoint x="830" y="129.8" as="targetPoint" />
          </mxGeometry>
        </mxCell>
        <mxCell id="OE6n2S07r0290rKV6QJE-35" value="" style="endArrow=classic;html=1;rounded=0;" parent="1" edge="1">
          <mxGeometry width="50" height="50" relative="1" as="geometry">
            <mxPoint x="830" y="130" as="sourcePoint" />
            <mxPoint x="830" y="160" as="targetPoint" />
          </mxGeometry>
        </mxCell>
        <mxCell id="OE6n2S07r0290rKV6QJE-36" value="n = 0 (возврат)" style="rounded=0;whiteSpace=wrap;html=1;" parent="1" vertex="1">
          <mxGeometry x="780" y="160" width="90" height="20" as="geometry" />
        </mxCell>
        <mxCell id="OE6n2S07r0290rKV6QJE-37" value="" style="endArrow=none;html=1;rounded=0;" parent="1" edge="1">
          <mxGeometry width="50" height="50" relative="1" as="geometry">
            <mxPoint x="860" y="100" as="sourcePoint" />
            <mxPoint x="960" y="100" as="targetPoint" />
          </mxGeometry>
        </mxCell>
        <mxCell id="OE6n2S07r0290rKV6QJE-39" value="" style="endArrow=classic;html=1;rounded=0;" parent="1" edge="1">
          <mxGeometry width="50" height="50" relative="1" as="geometry">
            <mxPoint x="961" y="100" as="sourcePoint" />
            <mxPoint x="961" y="120" as="targetPoint" />
          </mxGeometry>
        </mxCell>
        <mxCell id="OE6n2S07r0290rKV6QJE-40" value="id = 7, n = 1&lt;br&gt;1, 2, 3" style="rounded=0;whiteSpace=wrap;html=1;" parent="1" vertex="1">
          <mxGeometry x="927" y="120" width="73" height="30" as="geometry" />
        </mxCell>
        <mxCell id="OE6n2S07r0290rKV6QJE-41" value="" style="endArrow=none;html=1;rounded=0;" parent="1" edge="1">
          <mxGeometry width="50" height="50" relative="1" as="geometry">
            <mxPoint x="910" y="130" as="sourcePoint" />
            <mxPoint x="927" y="130" as="targetPoint" />
          </mxGeometry>
        </mxCell>
        <mxCell id="OE6n2S07r0290rKV6QJE-42" value="" style="endArrow=classic;html=1;rounded=0;" parent="1" edge="1">
          <mxGeometry width="50" height="50" relative="1" as="geometry">
            <mxPoint x="910" y="130" as="sourcePoint" />
            <mxPoint x="910" y="160" as="targetPoint" />
          </mxGeometry>
        </mxCell>
        <mxCell id="OE6n2S07r0290rKV6QJE-43" value="n = 0 (возврат)" style="rounded=0;whiteSpace=wrap;html=1;" parent="1" vertex="1">
          <mxGeometry x="880" y="160" width="90" height="20" as="geometry" />
        </mxCell>
        <mxCell id="OE6n2S07r0290rKV6QJE-44" value="" style="endArrow=none;html=1;rounded=0;" parent="1" edge="1">
          <mxGeometry width="50" height="50" relative="1" as="geometry">
            <mxPoint x="1000" y="130" as="sourcePoint" />
            <mxPoint x="1040" y="129.8" as="targetPoint" />
          </mxGeometry>
        </mxCell>
        <mxCell id="OE6n2S07r0290rKV6QJE-45" value="" style="endArrow=classic;html=1;rounded=0;" parent="1" edge="1">
          <mxGeometry width="50" height="50" relative="1" as="geometry">
            <mxPoint x="1040" y="130" as="sourcePoint" />
            <mxPoint x="1040" y="160" as="targetPoint" />
          </mxGeometry>
        </mxCell>
        <mxCell id="OE6n2S07r0290rKV6QJE-46" value="n = 0 (возврат)" style="rounded=0;whiteSpace=wrap;html=1;" parent="1" vertex="1">
          <mxGeometry x="990" y="160" width="90" height="20" as="geometry" />
        </mxCell>
      </root>
    </mxGraphModel>
  </diagram>
</mxfile>
